<svg xmlns="http://www.w3.org/2000/svg" width="128" height="70" viewBox="0 0 128 70">
  <g fill="currentColor" transform="translate(-255,-309)">
    <path id="k-left" d="m 255,309 v 65 c 0,4.802 6.115,6.839 9,3 l 1,-1.334 V 309 Z"/>
    <path id="k-center" d="m 266,357.667 v 16.667 L 315,309 h -12.5 z"/>
    <path id="k-right" d="m 289.367,344.851 -6.236,8.316 19.37,25.834 h 12.5 z"/>
    <path id="7-top" d="m 351.751,319 -7.5,-10 h -21.25 l -7.5,10 z"/>
    <path id="7-bottom" d="m 366.134,338.156 -6.253,-8.325 -36.88,49.17 h 12.5 z"/>
    <path id="symbol-1" d="m 345.501,309 7.5,10 h 27.5 l 1.49,-2 c 2.474,-3.297 0.132,-8.002 -3.99,-8 z"/>
    <path id="symbol-2" d="m 379.751,320 h -12.5 l -6.75,9 6.26,8.32 z"/>
  </g>
</svg>
